<svg xmlns="http://www.w3.org/2000/svg" width="512" height="512" fill="none"><style>@media(prefers-color-scheme:dark){#f{fill:#F2F2F2}}@media(prefers-color-scheme:light){#f{fill:#1A1A1A}}</style><mask id="m" width="252" height="492" x="138" y="15" fill="#000" maskUnits="userSpaceOnUse"><path fill="#fff" d="M138 15h252v492H138z"/><path d="m222.201 485-28.8-39q30.6-17.4 41.4-32.4t10.8-31.2q0-17.4-9-33-9-16.2-22.2-32.4t-27-34.2q-13.2-18.6-22.2-40.2-9-22.2-9-48.6 0-49.8 25.2-87 25.8-37.8 64.8-69l109.8 73.2q-32.4 20.4-53.4 45t-21 54q0 19.8 9 37.2 9.6 17.4 21 34.2 12 16.2 21 33 9.6 16.8 9.6 36 0 47.4-33 80.4-32.4 32.4-87 54"/></mask><path id="f" d="m222.201 485-14.48 10.693 8.226 11.139 12.875-5.094zm-28.8-39-8.898-15.647-17.63 10.025 12.048 16.315zm41.4-32.4 14.607 10.517zm1.8-64.2-15.735 8.742.071.127.072.126zm-22.2-32.4 13.954-11.37zm-27-34.2-14.679 10.417.192.271.202.264zm-22.2-40.2-16.682 6.763.033.08.033.08zm16.2-135.6-14.867-10.147-.018.026-.018.026zm64.8-69 9.984-14.977-10.951-7.3-10.278 8.221zm109.8 73.2 9.59 15.232 23.507-14.8-23.113-15.409zm-65.4 136.2-15.988 8.27.111.214.116.211zm21 34.2-14.895 10.107.209.308.222.299zm21 33-15.867 8.5.116.217.122.213zm-23.4 116.4 12.728 12.728zm-72.52 43.307-28.8-39-28.96 21.386 28.8 39zm-34.383-12.66c20.977-11.928 37.576-24.287 47.11-37.53l-29.215-21.034c-4.866 6.757-15.867 15.998-35.69 27.27zm47.11-37.53c9.083-12.614 14.193-26.624 14.193-41.717h-36c0 6.507-2.09 13.297-7.408 20.683zm14.193-41.717c0-14.871-3.889-28.96-11.409-41.995l-31.183 17.99c4.48 7.765 6.592 15.676 6.592 24.005zm-11.265-41.742c-6.576-11.835-14.594-23.508-23.981-35.028l-27.908 22.74c8.213 10.08 14.994 20.007 20.419 29.772zm-23.981-35.028q-13.018-15.976-26.669-33.782l-28.57 21.904q13.948 18.194 27.331 34.618zm-26.275-33.247c-8.007-11.283-14.764-23.507-20.264-36.706l-33.231 13.846c6.501 15.601 14.544 30.177 24.137 43.694zm-20.198-36.546c-5.044-12.442-7.681-26.318-7.681-41.837h-36c0 19.681 3.363 38.205 10.318 55.363zM174.201 194c0-30.007 7.537-55.404 22.102-76.905l-29.805-20.19c-19.035 28.099-28.297 60.702-28.297 97.095zm22.067-76.853c16.105-23.596 36.446-45.306 61.177-65.091l-22.489-28.112c-27.268 21.815-50.128 46.105-68.422 72.909zm39.948-64.17 109.8 73.2 19.969-29.954-109.8-73.2zm110.194 42.99c-22.863 14.396-42.126 30.538-57.499 48.546l27.38 23.374c12.627-14.792 28.964-28.65 49.3-41.455zm-57.499 48.546c-16.483 19.309-25.31 41.364-25.31 65.687h36c0-14.877 5.173-28.822 16.69-42.313zm-25.31 65.687c0 16.046 3.675 31.285 11.012 45.47l31.976-16.54c-4.663-9.015-6.988-18.576-6.988-28.93zm11.239 45.895a454 454 0 0 0 21.866 35.612l29.789-20.214a418 418 0 0 1-20.134-32.788zm22.297 36.219c7.509 10.137 14.033 20.4 19.597 30.786l31.733-17c-6.436-12.014-13.911-23.751-22.402-35.214zm19.835 31.216c4.859 8.503 7.229 17.428 7.229 27.07h36c0-15.958-4.03-31.033-11.972-44.931zm7.229 27.07c0 26.91-9.163 49.107-27.728 67.672l25.456 25.456c25.434-25.435 38.272-56.838 38.272-93.128zm-27.728 67.672c-19.445 19.444-46.163 36.251-80.894 49.99l13.243 33.476c38.07-15.061 69.351-34.254 93.107-58.01z" mask="url(#m)"/></svg>